<svg width="256" height="256" viewBox="0 0 256 256" fill="none" xmlns="http://www.w3.org/2000/svg">
<g clip-path="url(#clip0_9_25)">
<path d="M23.0854 126.424C23.0594 137.574 27.4687 147.11 32.091 157.01C36.9141 167.086 40.1683 176.32 39.5894 187.695C39.1373 198.116 28.7404 206.922 18.7551 207.577C8.39311 208.256 1.97308 199.796 2.66295 190.115C3.1555 177.423 -1.10238 167.311 -6.37625 156.131C-11.8509 144.775 -14.7776 134.764 -13.343 122.01C-8.44462 121.689 -3.35781 121.356 1.729 121.022C0.130712 134.164 3.64732 144.515 9.13425 156.059C11.5643 161.379 14.1704 166.498 15.8592 172.056C17.7857 178.354 18.0042 184.575 17.4815 191.033C17.4164 192.927 18.8339 194.346 20.7179 194.222C22.6019 194.099 24.1988 192.482 24.4523 190.576C25.1949 178.813 22.4936 169.354 17.4574 158.914C12.622 148.65 8.01203 138.938 8.01337 127.412C8.22094 121.919 7.84756 119.11 2.76417 116.609C-7.98016 111.456 -8.7605 102.437 -7.79249 91.2262C-7.60067 88.3794 -7.42118 85.3445 -7.8069 82.3467C-8.44817 72.5635 -1.85622 63.44 8.3174 62.7731C18.1142 62.1309 28.6421 69.7544 29.308 79.9138C29.6533 85.1817 29.2327 90.3108 28.2468 95.4769C23.3484 95.798 18.2616 96.1314 13.1748 96.4649C14.1236 90.7343 14.5073 85.0408 14.1126 79.0204C13.8009 77.1514 12.1951 75.7451 10.3111 75.8686C8.42705 75.9921 7.0185 77.596 7.14182 79.4773C7.38846 83.2401 7.42204 86.6389 7.27955 90.2382C7.10006 93.2731 6.38004 96.7213 7.87149 99.2688C8.72375 100.724 10.8701 101.717 12.2383 102.384C22.2167 107.398 23.3368 115.827 23.0854 126.424Z" fill="black"/>
<path d="M53.3507 61.7107C63.1475 61.0685 73.8514 68.4915 74.1529 78.8638C74.2783 89.4365 71.7167 99.4296 69.5443 109.586C67.7241 119.342 59.6373 128.752 49.4636 129.419C47.9564 129.518 47.3912 129.555 45.884 129.654C47.3125 142.786 54.8471 153.818 59.4167 165.8C64.011 178.158 62.1627 190.372 60.339 202.962C55.2522 203.295 50.1653 203.629 45.2669 203.95C47.2667 191.159 48.9143 178.77 44.1316 166.424C40.0128 155.546 33.3058 145.594 31.2224 134.016C29.3767 123.178 32.4294 112.019 34.7656 101.474C37.4943 88.2577 37.0818 76.1922 34.699 62.9333C40.9162 62.5257 47.1335 62.1182 53.3507 61.7107ZM54.2188 112.48C56.3049 101.007 59.546 89.8353 58.9575 77.9704C58.6458 76.1013 57.0399 74.695 55.1559 74.8185C53.8371 74.905 53.0835 74.9544 51.7647 75.0408C53.0788 89.3145 49.0189 102.429 46.7164 116.373C48.0352 116.286 48.7888 116.237 50.1076 116.151C52.18 116.015 53.7769 114.399 54.2188 112.48Z" fill="black"/>
<path d="M111.201 128.773C112.711 137.366 117.021 145.397 120.754 153.277C125.151 162.625 127.615 171.344 127.363 181.941C126.911 192.363 116.326 201.181 106.341 201.836C96.1671 202.503 89.7471 194.043 90.2486 184.374C90.6884 173.764 88.0364 165.058 83.6394 155.71C80.0947 147.817 75.5957 139.799 74.2748 131.194C71.1823 112.88 80.7989 95.0553 79.9671 76.5932C79.1375 66.8224 85.7294 57.6989 95.903 57.032C105.7 56.3898 116.416 64.001 116.894 74.1727C117.914 92.6225 108.297 110.447 111.201 128.773ZM112.038 184.835C112.83 173.824 110.542 164.905 106.108 154.993C102.363 146.924 97.6632 138.73 96.1293 129.761C92.9997 110.883 103.145 92.4569 101.698 73.2793C101.575 71.3979 99.7807 70.004 97.8967 70.1275C96.0127 70.251 94.6041 71.8549 94.9158 73.7239C96.3621 92.9015 86.2173 111.327 89.3469 130.206C90.8808 139.175 95.3921 147.381 99.1376 155.449C103.76 165.35 105.859 174.281 105.256 185.28C105.002 187.186 106.42 188.604 108.304 188.481C110.188 188.357 111.973 186.729 112.038 184.835Z" fill="black"/>
<path d="M134.055 127.275C135.95 138.866 142.846 148.806 146.964 159.683C151.559 172.042 149.911 184.431 147.911 197.221C142.825 197.555 137.926 197.876 132.839 198.209C134.839 185.419 136.487 173.029 131.892 160.671C127.774 149.793 120.878 139.853 118.983 128.263C117.137 117.425 120.19 106.266 122.338 95.7335C125.067 82.5174 124.654 70.452 122.46 57.1807C127.547 56.8472 132.445 56.5262 137.532 56.1927C139.726 69.464 140.139 81.5295 137.41 94.7456C135.262 105.278 132.209 116.437 134.055 127.275Z" fill="black"/>
<path d="M171.222 162.817C173.161 169.303 173.015 175.737 172.504 182.383C177.403 182.062 182.113 181.753 187.011 181.432C186.553 185.997 185.895 190.386 185.048 194.787C175.251 195.429 165.455 196.071 155.658 196.714C157.658 183.923 159.305 171.534 154.523 159.188C150.404 148.31 143.697 138.358 141.613 126.78C139.768 115.942 143.009 104.771 145.156 94.2378C147.885 81.0217 147.473 68.9562 145.278 55.685C150.177 55.3639 155.264 55.0304 160.35 54.697C162.27 66.6637 163.186 77.7514 160.949 89.8016C159.128 99.5572 156.165 109.199 156.254 119.207C156.178 129.604 160.751 138.751 165.124 147.723C167.341 152.679 169.746 157.623 171.222 162.817Z" fill="black"/>
<path d="M207.774 152.296C212.861 151.963 217.948 151.629 222.846 151.308C226.215 159.401 227.638 166.677 227.439 175.192C226.999 185.802 216.414 194.621 206.428 195.275C196.066 195.954 189.835 187.482 190.336 177.813C190.919 163.604 185.28 152.637 179.543 140.165C177.113 134.845 175.06 129.5 174.112 123.705C173.066 116.404 174.293 109.144 175.709 101.871C177.856 91.3386 180.582 80.9569 180.055 70.0326C179.225 60.2618 185.817 51.1382 195.991 50.4714C205.788 49.8292 216.504 57.4404 216.994 67.8003C218.211 89.2602 206.281 109.315 213.54 130.568C216.97 139.601 213.995 149.054 203.256 149.758C202.125 149.832 200.807 149.919 199.676 149.993C200.992 152.741 202.118 155.501 203.057 158.274C205.385 164.923 205.641 171.709 205.343 178.719C205.09 180.625 206.507 182.044 208.391 181.92C210.275 181.797 211.872 180.181 212.113 178.086C212.828 168.781 211.368 160.941 207.774 152.296ZM193.726 137.157C194.856 137.083 195.987 137.009 197.306 136.922C199.19 136.799 200.033 135.232 199.344 133.388C195.013 122.146 195.477 111.912 197.739 100.238C199.85 89.1412 202.739 78.3709 201.798 66.9068C201.663 64.8373 199.868 63.4434 197.984 63.5669C196.1 63.6904 194.692 65.2943 194.815 67.1756C196.302 84.0833 189.388 99.841 188.79 116.696C188.737 118.778 188.86 120.66 189.185 122.717C189.894 127.772 191.722 132.565 193.726 137.157Z" fill="black"/>
<path d="M256.186 119.27C257.494 127.686 261.592 135.354 265.3 142.857C269.484 151.841 272.325 160.536 272.225 170.556C272.149 180.953 261.564 189.772 251.579 190.426C245.361 190.834 239.144 191.241 233.115 191.636C235.115 178.846 236.763 166.457 231.98 154.111C227.861 143.233 221.154 133.281 219.071 121.702C217.225 110.865 220.278 99.7057 222.614 89.1606C225.343 75.9445 224.93 63.879 222.548 50.6201C228.765 50.2125 234.982 49.805 241.199 49.3975C250.996 48.7553 261.7 56.1783 262.001 66.5506C262.219 84.2972 253.143 101.708 256.186 119.27ZM257.087 173.438C257.54 163.016 254.875 154.121 250.478 144.773C246.934 136.881 242.435 128.863 241.114 120.258C238.021 101.944 247.826 84.1069 246.806 65.6572C246.494 63.7881 244.888 62.3818 243.004 62.5053C241.686 62.5918 240.932 62.6412 239.613 62.7276C240.517 73.6272 238.533 83.7714 236.397 94.4923C234.491 102.931 232.621 111.934 234.143 120.715C235.702 130.06 240.614 138.618 244.585 147.238C249.019 157.151 250.766 166.483 249.962 177.306C251.281 177.22 252.034 177.17 253.353 177.084C255.425 176.948 256.834 175.344 257.087 173.438Z" fill="black"/>
</g>
<defs>
<clipPath id="clip0_9_25">
<rect width="256" height="256" fill="white"/>
</clipPath>
</defs>
</svg>
