<svg width="365" height="186" viewBox="0 0 365 186" fill="none" xmlns="http://www.w3.org/2000/svg">
<rect width="365" height="186" fill="white"/>
<path d="M49.2923 82.613C48.3256 96.8649 53.1591 109.426 58.2342 122.47C63.5509 135.756 66.9343 147.834 65.2426 162.327C63.7926 175.613 49.7757 186 36.9671 186C23.6752 186 16.1834 174.647 17.875 162.327C19.5667 146.143 14.975 132.857 9.17488 118.122C3.1331 103.145 0.233045 90.1013 3.1331 73.9169C9.41655 73.9169 15.9417 73.9169 22.4668 73.9169C19.3251 90.5844 22.9501 104.112 28.9919 119.33C31.6503 126.335 34.5504 133.099 36.2421 140.345C38.1754 148.558 37.9338 156.53 36.7254 164.743C36.4837 167.158 38.1754 169.091 40.5921 169.091C43.0089 169.091 45.1839 167.158 45.6672 164.743C47.6006 149.766 44.9422 137.447 39.3838 123.678C34.067 110.151 28.9919 97.348 29.9586 82.613C30.6836 75.6078 30.442 71.9844 24.1585 68.361C10.8666 60.8727 10.6249 49.2779 12.8 35.026C13.2833 31.4026 13.7666 27.5377 13.525 23.6727C13.525 11.1117 22.7085 0 35.7587 0C48.3256 0 61.1342 10.6286 61.1342 23.6727C61.1342 30.4364 60.1675 36.9584 58.4758 43.4805C52.1924 43.4805 45.6672 43.4805 39.1421 43.4805C40.8338 36.2338 41.8005 28.987 41.8005 21.2571C41.5588 18.8416 39.6255 16.9091 37.2088 16.9091C34.792 16.9091 32.8587 18.8416 32.8587 21.2571C32.8587 26.0883 32.617 30.4364 32.1337 35.026C31.6503 38.8909 30.442 43.239 32.1337 46.6208C33.1003 48.5532 35.7587 50.0026 37.4504 50.9688C49.7757 58.2156 50.5007 69.0857 49.2923 82.613Z" fill="black"/>
<path d="M93.3671 2.41558C105.934 2.41558 118.984 12.8026 118.501 26.0883C117.776 39.6156 113.668 52.1766 110.042 64.9792C106.901 77.2987 95.7838 88.652 82.7336 88.652C80.8002 88.652 80.0752 88.652 78.1418 88.652C78.8668 105.561 87.567 120.296 92.4004 135.997C97.2339 152.182 93.8505 167.642 90.4671 183.584C83.9419 183.584 77.4168 183.584 71.1334 183.584C74.7584 167.4 77.9001 151.699 72.8251 135.514C68.475 121.262 60.7415 107.977 59.0498 93C57.5998 78.9896 62.4332 64.9792 66.2999 51.6935C70.8917 35.026 71.375 19.5662 69.4417 2.41558C77.4168 2.41558 85.392 2.41558 93.3671 2.41558ZM90.2254 67.3948C93.8505 52.9013 98.9255 38.8909 99.1672 23.6727C98.9255 21.2571 96.9922 19.3247 94.5755 19.3247C92.8838 19.3247 91.9171 19.3247 90.2254 19.3247C90.7087 37.6831 84.4253 54.1091 80.3169 71.7429C82.0086 71.7429 82.9752 71.7429 84.6669 71.7429C87.3253 71.7429 89.5004 69.8104 90.2254 67.3948Z" fill="black"/>
<path d="M161.643 93C162.851 104.112 167.685 114.74 171.793 125.127C176.627 137.447 179.043 148.8 177.835 162.327C176.385 175.613 162.126 186 149.318 186C136.268 186 128.776 174.647 130.226 162.327C131.676 148.8 129.017 137.447 124.184 125.127C120.317 114.74 115.242 104.112 114.275 93C111.859 69.3273 125.634 47.3455 126.117 23.6727C125.876 11.1117 135.059 0 148.109 0C160.676 0 173.727 10.6286 173.485 23.6727C173.243 47.3455 159.468 69.3273 161.643 93ZM158.018 164.743C159.951 150.732 157.776 139.138 152.943 126.094C148.834 115.465 143.518 104.595 142.309 93C139.893 68.6026 154.393 45.8961 154.151 21.2571C154.151 18.8416 151.976 16.9091 149.559 16.9091C147.143 16.9091 145.209 18.8416 145.451 21.2571C145.693 45.8961 131.192 68.6026 133.609 93C134.818 104.595 139.893 115.465 144.001 126.094C149.076 139.138 151.009 150.732 149.318 164.743C148.834 167.158 150.526 169.091 152.943 169.091C155.36 169.091 157.776 167.158 158.018 164.743Z" fill="black"/>
<path d="M190.959 93C192.409 107.977 200.384 121.262 204.734 135.514C209.568 151.699 206.426 167.4 202.801 183.584C196.276 183.584 189.992 183.584 183.467 183.584C187.092 167.4 190.234 151.699 185.4 135.514C181.05 121.262 173.075 107.977 171.625 93C170.175 78.9896 175.009 64.9792 178.634 51.6935C183.225 35.026 183.709 19.5662 182.017 2.41558C188.542 2.41558 194.826 2.41558 201.351 2.41558C203.042 19.5662 202.559 35.026 197.967 51.6935C194.342 64.9792 189.509 78.9896 190.959 93Z" fill="black"/>
<path d="M235.455 141.553C237.388 150.008 236.663 158.221 235.455 166.675C241.738 166.675 247.78 166.675 254.063 166.675C253.097 172.473 251.888 178.029 250.438 183.584C237.871 183.584 225.305 183.584 212.738 183.584C216.363 167.4 219.504 151.699 214.429 135.514C210.079 121.262 202.346 107.977 200.654 93C199.204 78.9896 204.279 64.9792 207.904 51.6935C212.496 35.026 212.979 19.5662 211.288 2.41558C217.571 2.41558 224.096 2.41558 230.621 2.41558C232.071 17.8753 232.313 32.1273 228.446 47.3455C225.305 59.6649 220.713 71.7429 219.988 84.5455C219.021 97.8312 224.096 109.909 228.93 121.745C231.346 128.268 234.005 134.79 235.455 141.553Z" fill="black"/>
<path d="M283.022 131.166C289.548 131.166 296.073 131.166 302.356 131.166C305.981 141.795 307.19 151.216 306.223 162.086C304.773 175.613 290.514 186 277.706 186C264.414 186 257.164 174.647 258.614 162.327C260.547 144.21 254.264 129.717 247.98 113.291C245.322 106.286 243.147 99.2805 242.422 91.7922C241.697 82.3714 243.872 73.1922 246.288 64.013C249.913 50.7273 254.264 37.6831 254.505 23.6727C254.264 11.1117 263.447 0 276.497 0C289.064 0 302.114 10.6286 301.873 23.9143C301.631 51.4519 284.714 76.0909 292.206 103.87C295.831 115.706 291.239 127.543 277.464 127.543C276.014 127.543 274.322 127.543 272.872 127.543C274.322 131.166 275.531 134.79 276.497 138.413C278.914 147.109 278.672 155.805 277.706 164.743C277.222 167.158 278.914 169.091 281.331 169.091C283.747 169.091 285.922 167.158 286.406 164.501C288.098 152.665 286.889 142.519 283.022 131.166ZM266.347 110.634C267.797 110.634 269.247 110.634 270.939 110.634C273.356 110.634 274.564 108.701 273.839 106.286C269.247 91.5507 270.697 78.5065 274.564 63.7714C278.189 49.761 282.781 36.2338 282.539 21.4987C282.539 18.8416 280.364 16.9091 277.947 16.9091C275.531 16.9091 273.597 18.8416 273.597 21.2571C274.081 42.9974 263.93 62.5636 261.755 84.0623C261.514 86.7195 261.514 89.1351 261.755 91.7922C262.239 98.3143 264.172 104.595 266.347 110.634Z" fill="black"/>
<path d="M347.622 93C348.589 103.87 353.181 114.016 357.289 123.919C361.881 135.756 364.781 147.109 363.814 159.912C362.848 173.197 348.589 183.584 335.78 183.584C327.805 183.584 319.83 183.584 312.097 183.584C315.722 167.4 318.863 151.699 313.788 135.514C309.438 121.262 301.705 107.977 300.013 93C298.563 78.9896 303.396 64.9792 307.263 51.6935C311.855 35.026 312.338 19.5662 310.405 2.41558C318.38 2.41558 326.355 2.41558 334.33 2.41558C346.897 2.41558 359.948 12.8026 359.464 26.0883C358.256 48.7948 345.206 70.2935 347.622 93ZM344.239 162.327C345.689 149.042 343.031 137.447 338.197 125.127C334.33 114.74 329.255 104.112 328.289 93C325.872 69.3273 339.889 47.3455 340.13 23.6727C339.889 21.2571 337.955 19.3247 335.539 19.3247C333.847 19.3247 332.88 19.3247 331.189 19.3247C331.43 33.3351 328.047 46.1377 324.422 59.6649C321.28 70.2935 318.138 81.6468 319.347 93C320.555 105.078 326.114 116.431 330.464 127.784C335.297 140.829 336.747 152.906 334.814 166.675C336.505 166.675 337.472 166.675 339.164 166.675C341.822 166.675 343.756 164.743 344.239 162.327Z" fill="black"/>
</svg>
